<svg width="87" height="35" viewBox="0 0 87 35" fill="none" xmlns="http://www.w3.org/2000/svg">
<path fill-rule="evenodd" clip-rule="evenodd" d="M14.35 0.0769795C14.3253 -0.0256598 14.2018 -0.0256598 14.1523 0.0769795L11.286 5.15762C11.2613 5.20894 11.2613 5.26026 11.286 5.28592L14.2512 10.5718L22.1088 24.5821C22.1335 24.6334 22.1335 24.6848 22.0841 24.7361L17.9329 29.5601L13.5099 34.7434C13.4358 34.8204 13.4852 34.9487 13.6087 34.9487H20.2309C20.2556 34.9487 20.305 34.923 20.3297 34.8974L28.4838 25.3776C28.5085 25.3262 28.5332 25.2749 28.5085 25.2236L14.35 0.0769795ZM11.0884 34.9615C11.1069 34.9487 11.1254 34.9359 11.1378 34.923L15.5361 29.7911C15.6102 29.7141 15.5608 29.5858 15.4372 29.5858H10.5942C10.5695 29.5858 10.5201 29.5601 10.4953 29.5345L6.39357 24.7617C6.36886 24.7104 6.34415 24.6591 6.36886 24.6078L13.2381 12.368C13.2628 12.3167 13.2628 12.2654 13.2381 12.2397L10.3965 7.15909C10.3471 7.08211 10.2235 7.08211 10.1741 7.15909L0.0185321 25.2749C-0.00617736 25.3262 -0.00617736 25.3776 0.0185321 25.4289L8.17265 34.9487C8.19736 34.9743 8.22207 35 8.27149 35H11.039C11.0513 34.9872 11.0698 34.9743 11.0884 34.9615ZM40.715 27.8409C40.715 27.9179 40.7891 27.9692 40.8386 27.9692H47.9055C47.9796 27.9692 48.029 28.0205 48.029 28.0975V33.1012C48.029 33.1782 47.9796 33.2295 47.9055 33.2295H40.715H35.7978C35.7237 33.2295 35.6743 33.1782 35.6743 33.1012V17.0894C35.6743 17.0638 35.6743 17.0381 35.699 17.0125L40.4926 11.4443C40.5668 11.3416 40.715 11.393 40.715 11.5213V27.8409ZM54.8735 33.2295C54.9477 33.2295 54.9971 33.1525 54.9971 33.1012V17.8079C54.9971 17.6796 54.8488 17.6283 54.7747 17.7309L49.9811 23.2991C49.9564 23.3248 49.9564 23.3504 49.9564 23.3761V33.1012C49.9564 33.1782 50.0058 33.2295 50.0799 33.2295H54.8735ZM80.942 25.4289L86.0816 33.0242C86.131 33.1012 86.0816 33.2295 85.9827 33.2295H80.6455C80.6208 33.2295 80.5714 33.2038 80.5467 33.1782L76.519 26.8915C76.4449 26.7889 76.2966 26.8402 76.2966 26.9685V27.9692V33.1012C76.2966 33.1782 76.2472 33.2295 76.1731 33.2295H71.3795C71.3053 33.2295 71.2559 33.1782 71.2559 33.1012V17.0638C71.2559 17.0381 71.2559 17.0125 71.2806 16.9868L76.0742 11.4186C76.1484 11.316 76.2966 11.3673 76.2966 11.4956V23.5557C76.2966 23.684 76.4449 23.7353 76.519 23.6327L80.1513 17.5257C80.176 17.5 80.2007 17.4743 80.2502 17.4743H85.7604C85.8592 17.4743 85.9086 17.6026 85.8592 17.6796L80.942 25.2749C80.9173 25.3262 80.9173 25.3776 80.942 25.4289ZM56.6032 30.0733C57.7151 32.4084 59.8648 33.5374 63.1265 33.5374C66.2399 33.5374 69.5509 32.1774 69.5509 28.3798C69.5509 24.5977 66.5122 23.8696 64.2662 23.3314L64.2384 23.3248L64.1595 23.3051C62.9611 23.0068 62.0146 22.7711 62.0146 22.0931C62.0146 21.5543 62.484 21.2207 63.25 21.2207C64.0407 21.2207 64.6832 21.6312 65.128 22.4267C65.1527 22.478 65.2268 22.5037 65.2762 22.478L69.0815 20.7075C69.1556 20.6818 69.1803 20.6048 69.1309 20.5279C67.9695 18.3211 65.9434 17.1921 63.1265 17.1921C59.0494 17.1664 57.1962 19.7581 57.1962 22.324C57.1962 25.826 60.1878 26.6288 62.3847 27.2183L62.4099 27.2251C63.6948 27.5587 64.6091 27.8152 64.6091 28.4824C64.6091 28.9186 64.362 29.4575 63.1265 29.4575C61.9899 29.4575 61.1744 28.9443 60.7544 27.9179C60.7297 27.8409 60.6555 27.8152 60.5814 27.8409L56.6526 29.8937C56.5785 29.9194 56.5538 29.9963 56.6032 30.0733Z" fill="#fff"/>
</svg>

